<svg width="267" height="49" viewBox="0 0 267 49" fill="none" xmlns="http://www.w3.org/2000/svg">
<path fill-rule="evenodd" clip-rule="evenodd" d="M49.3121 46.976C47.0081 46.4 46.6881 44.032 46.6881 40.512V0L34.9761 2.112C32.5441 0.256001 28.8961 0.0639992 27.7441 0.0639992C23.1361 0.0639992 16.6721 3.072 16.6721 13.056V18.176V19.008V24.744H16.5C13.3372 20.2883 9.41817 20.0072 6.02816 19.764C3.58265 19.5886 1.41243 19.4329 0 17.744V19.174C0 19.174 4.32179 20.9781 7.12963 22.034C13.3519 24.374 14.2593 27.624 14.2593 27.624L16.6721 29.9469V40.512C16.6721 43.776 16.5441 46.208 14.1121 46.976V47.744H28.7041V46.976C26.4001 46.336 26.0801 44.032 26.0801 40.512V22.9708C26.5856 22.6684 27.1378 22.3557 27.7407 22.034C30.7701 20.4181 35 19.174 35 19.174V17.744C34.1294 19.0279 32.3138 19.1929 30.0841 19.3954C28.8467 19.5078 27.4818 19.6318 26.0801 19.9651V19.008V18.176V16.896C26.0801 3.136 30.6881 1.344 34.9761 2.944C37.0881 3.712 37.2161 5.568 37.2161 7.296V40.512C37.2161 43.776 37.1521 46.272 34.7201 46.976V47.744H49.3121V46.976ZM26.0801 19.9651C23.6137 20.5514 21.0334 21.7855 18.8333 24.744H16.6721V29.9469L17.5 30.744L20.7407 27.624C20.7407 27.624 21.4774 25.7243 26.0801 22.9708V19.9651ZM73.5 32.384C73.5 43.968 72.86 46.912 68.828 46.912C64.796 46.912 64.156 43.968 64.156 32.384C64.156 20.8 64.796 17.856 68.828 17.856C72.86 17.856 73.5 20.8 73.5 32.384ZM84.7 32.384C84.7 23.936 79.452 17.024 68.828 17.024C58.268 17.024 52.956 23.936 52.956 32.384C52.956 40.768 58.268 47.744 68.828 47.744C79.452 47.744 84.7 40.768 84.7 32.384ZM117.856 42.88C119.968 45.824 122.592 46.912 124.576 46.912V47.744H114.144C109.981 47.744 109.287 46.7202 105.575 41.2413L105.572 41.2363L105.572 41.236C105.347 40.9046 105.112 40.5568 104.864 40.192C102.944 37.376 101.216 34.752 101.216 34.752L108 27.648C109.408 26.176 114.336 18.88 108.192 19.008V18.176H124.64V19.008C122.272 19.072 114.784 21.12 107.68 29.376C112.416 36.032 117.856 42.88 117.856 42.88ZM99.9996 40.256C99.9996 43.776 100.32 46.336 102.624 46.976V47.744H88.0316V46.976C90.4636 46.272 90.5916 43.584 90.5916 40.256V7.488C90.5916 5.248 89.8876 4.288 87.2636 3.328V2.56L99.9996 0V40.256Z" fill="#2B2C2B"/>
<path d="M157.156 44.16V29.76C157.156 22.5599 153.196 19.74 148.156 19.74C144.016 19.74 140.116 23.16 139.396 26.82V4.19995L133.396 5.21995V5.75995C135.916 5.75995 136.396 6.59995 136.396 8.69995V44.16C136.396 47.22 136.276 46.8 133.996 47.46V48H141.856V47.46C139.696 46.92 139.396 47.4599 139.396 44.16V27.36C140.056 25.68 142.516 21.36 146.776 21.36C151.696 21.36 154.216 24.72 154.216 30V44.16C154.216 47.22 154.096 46.86 151.816 47.52V48H159.616V47.52C157.516 46.9799 157.156 47.4599 157.156 44.16Z" fill="#2B2C2B"/>
<path d="M175.313 47.34C169.913 47.34 165.713 43.86 165.713 33.6H184.973C184.973 24.06 179.513 19.74 174.233 19.74C167.693 19.74 162.173 25.2 162.173 34.5C162.173 43.32 167.453 48.54 174.533 48.54C180.653 48.54 183.773 43.62 184.073 41.1L183.713 41.04C182.993 44.16 179.333 47.34 175.313 47.34ZM165.713 33C165.713 23.7 170.873 20.28 174.233 20.28C176.633 20.28 181.973 23.1 181.973 33H165.713Z" fill="#2B2C2B"/>
<path d="M204.055 42.42C203.395 43.86 201.775 46.8 197.515 46.8C194.095 46.8 191.935 44.82 191.935 41.34C191.935 37.1399 196.075 34.68 204.055 32.7V42.42ZM209.815 46.56C207.295 46.56 207.295 43.2 207.295 43.2V31.74C207.295 24.6 205.915 19.74 200.695 19.74C200.695 19.74 197.875 19.68 195.415 20.88C192.235 22.62 191.035 24.6 190.735 25.32C190.435 26.0399 190.615 26.94 191.155 27.6C191.935 28.56 193.255 28.62 194.155 27.84C195.055 27 195.175 25.62 194.395 24.72C193.975 24.24 193.495 24.06 192.955 23.94C192.655 23.88 193.135 22.56 195.895 21.24C201.355 18.96 204.055 22.7999 204.055 28.92V32.16C194.035 34.8 188.935 36.84 188.935 42.3C188.935 48.6 195.715 48.54 195.715 48.54C199.855 48.54 203.275 46.44 204.055 43.32C204.055 48.84 208.195 48.54 208.195 48.54C210.715 48.54 211.975 46.38 212.275 44.64L211.795 44.46C211.375 46.56 209.815 46.56 209.815 46.56Z" fill="#2B2C2B"/>
<path d="M219.674 4.19995L213.674 5.21995V5.75995C216.194 5.75995 216.674 6.59995 216.674 8.69995V44.16C216.674 47.22 216.554 46.8 214.274 47.46V48H222.134V47.46C219.974 46.92 219.674 47.4599 219.674 44.16V4.19995Z" fill="#2B2C2B"/>
<path d="M235.11 46.92C232.41 46.92 230.43 45.36 230.43 39.18V20.82H237.39L237.51 20.28H230.43V10.86L227.43 11.22V20.28H224.31L224.37 20.82H227.43V39.36C227.43 46.6199 229.95 48.54 233.91 48.54C236.85 48.54 238.65 46.5 239.13 44.04L238.77 43.92C238.35 45.54 236.85 46.92 235.11 46.92Z" fill="#2B2C2B"/>
<path d="M263.866 44.16V29.76C263.866 22.5599 259.906 19.74 254.866 19.74C250.726 19.74 246.826 23.16 246.106 26.82V4.19995L240.106 5.21995V5.75995C242.626 5.75995 243.106 6.59995 243.106 8.69995V44.16C243.106 47.22 242.986 46.8 240.706 47.46V48H248.566V47.46C246.406 46.92 246.106 47.4599 246.106 44.16V27.36C246.766 25.68 249.226 21.36 253.486 21.36C258.406 21.36 260.926 24.72 260.926 30V44.16C260.926 47.22 260.806 46.86 258.526 47.52V48H266.326V47.52C264.226 46.9799 263.866 47.4599 263.866 44.16Z" fill="#2B2C2B"/>
</svg>
